<mxfile host="app.diagrams.net" modified="2022-12-06T19:54:43.193Z" agent="5.0 (Macintosh; Intel Mac OS X 10_15_7) AppleWebKit/537.36 (KHTML, like Gecko) Chrome/107.0.0.0 Safari/537.36" etag="D0DTko8BQBXiUx8sr5Bg" version="20.6.0" type="github">
  <diagram id="C5RBs43oDa-KdzZeNtuy" name="Page-1">
    <mxGraphModel dx="1972" dy="924" grid="1" gridSize="10" guides="1" tooltips="1" connect="1" arrows="1" fold="1" page="1" pageScale="1" pageWidth="827" pageHeight="1169" math="0" shadow="0">
      <root>
        <mxCell id="WIyWlLk6GJQsqaUBKTNV-0" />
        <mxCell id="WIyWlLk6GJQsqaUBKTNV-1" parent="WIyWlLk6GJQsqaUBKTNV-0" />
        <object label="«interface»&lt;br&gt;&lt;b&gt;LevelFactory&lt;br&gt;+ CreateEnemy(): Enemy&lt;br&gt;+CreateProp(): Prop&lt;br&gt;+CraeetBackground(): Background&lt;br&gt;&lt;/b&gt;" CreateEnemy="Enemy" placeholders="1" id="1BqQqb550dc3k6DDFvRO-3">
          <mxCell style="html=1;" vertex="1" parent="WIyWlLk6GJQsqaUBKTNV-1">
            <mxGeometry x="35" y="10" width="220" height="90" as="geometry" />
          </mxCell>
        </object>
        <mxCell id="1BqQqb550dc3k6DDFvRO-4" value="«interface»&lt;br&gt;&lt;b&gt;Enemy&lt;br&gt;&lt;br&gt;&lt;/b&gt;" style="html=1;" vertex="1" parent="WIyWlLk6GJQsqaUBKTNV-1">
          <mxGeometry x="-65" y="620" width="160" height="70" as="geometry" />
        </mxCell>
        <mxCell id="1BqQqb550dc3k6DDFvRO-5" value="«interface»&lt;br&gt;&lt;b&gt;Prop&lt;/b&gt;" style="html=1;" vertex="1" parent="WIyWlLk6GJQsqaUBKTNV-1">
          <mxGeometry x="175" y="620" width="120" height="70" as="geometry" />
        </mxCell>
        <mxCell id="1BqQqb550dc3k6DDFvRO-70" value="" style="edgeStyle=orthogonalEdgeStyle;rounded=0;orthogonalLoop=1;jettySize=auto;html=1;" edge="1" parent="WIyWlLk6GJQsqaUBKTNV-1" source="1BqQqb550dc3k6DDFvRO-6" target="1BqQqb550dc3k6DDFvRO-25">
          <mxGeometry relative="1" as="geometry" />
        </mxCell>
        <mxCell id="1BqQqb550dc3k6DDFvRO-6" value="«interface»&lt;br&gt;&lt;b&gt;Background&lt;/b&gt;" style="html=1;" vertex="1" parent="WIyWlLk6GJQsqaUBKTNV-1">
          <mxGeometry x="385" y="610" width="120" height="80" as="geometry" />
        </mxCell>
        <mxCell id="1BqQqb550dc3k6DDFvRO-19" value="Use" style="endArrow=open;endSize=12;dashed=1;html=1;rounded=0;exitX=0.5;exitY=1;exitDx=0;exitDy=0;entryX=0.5;entryY=0;entryDx=0;entryDy=0;" edge="1" parent="WIyWlLk6GJQsqaUBKTNV-1" source="1BqQqb550dc3k6DDFvRO-3" target="1BqQqb550dc3k6DDFvRO-4">
          <mxGeometry width="160" relative="1" as="geometry">
            <mxPoint x="290" y="390" as="sourcePoint" />
            <mxPoint x="450" y="390" as="targetPoint" />
          </mxGeometry>
        </mxCell>
        <mxCell id="1BqQqb550dc3k6DDFvRO-20" value="Goblin" style="swimlane;fontStyle=1;align=center;verticalAlign=top;childLayout=stackLayout;horizontal=1;startSize=26;horizontalStack=0;resizeParent=1;resizeParentMax=0;resizeLast=0;collapsible=1;marginBottom=0;" vertex="1" parent="WIyWlLk6GJQsqaUBKTNV-1">
          <mxGeometry x="-150" y="730" width="110" height="60" as="geometry" />
        </mxCell>
        <mxCell id="1BqQqb550dc3k6DDFvRO-22" value="" style="line;strokeWidth=1;fillColor=none;align=left;verticalAlign=middle;spacingTop=-1;spacingLeft=3;spacingRight=3;rotatable=0;labelPosition=right;points=[];portConstraint=eastwest;strokeColor=inherit;" vertex="1" parent="1BqQqb550dc3k6DDFvRO-20">
          <mxGeometry y="26" width="110" height="8" as="geometry" />
        </mxCell>
        <mxCell id="1BqQqb550dc3k6DDFvRO-23" value="+ Attack(): void" style="text;strokeColor=none;fillColor=none;align=left;verticalAlign=top;spacingLeft=4;spacingRight=4;overflow=hidden;rotatable=0;points=[[0,0.5],[1,0.5]];portConstraint=eastwest;" vertex="1" parent="1BqQqb550dc3k6DDFvRO-20">
          <mxGeometry y="34" width="110" height="26" as="geometry" />
        </mxCell>
        <mxCell id="1BqQqb550dc3k6DDFvRO-24" value="+ Attack()" style="text;strokeColor=none;fillColor=none;align=left;verticalAlign=top;spacingLeft=4;spacingRight=4;overflow=hidden;rotatable=0;points=[[0,0.5],[1,0.5]];portConstraint=eastwest;" vertex="1" parent="WIyWlLk6GJQsqaUBKTNV-1">
          <mxGeometry x="-25" y="660" width="110" height="40" as="geometry" />
        </mxCell>
        <mxCell id="1BqQqb550dc3k6DDFvRO-25" value="+ Use()" style="text;strokeColor=none;fillColor=none;align=left;verticalAlign=top;spacingLeft=4;spacingRight=4;overflow=hidden;rotatable=0;points=[[0,0.5],[1,0.5]];portConstraint=eastwest;" vertex="1" parent="WIyWlLk6GJQsqaUBKTNV-1">
          <mxGeometry x="205" y="660" width="110" height="40" as="geometry" />
        </mxCell>
        <mxCell id="1BqQqb550dc3k6DDFvRO-26" value="+ Draw()" style="text;strokeColor=none;fillColor=none;align=left;verticalAlign=top;spacingLeft=4;spacingRight=4;overflow=hidden;rotatable=0;points=[[0,0.5],[1,0.5]];portConstraint=eastwest;" vertex="1" parent="WIyWlLk6GJQsqaUBKTNV-1">
          <mxGeometry x="415" y="660" width="110" height="40" as="geometry" />
        </mxCell>
        <mxCell id="1BqQqb550dc3k6DDFvRO-28" value="Zombie" style="swimlane;fontStyle=1;align=center;verticalAlign=top;childLayout=stackLayout;horizontal=1;startSize=26;horizontalStack=0;resizeParent=1;resizeParentMax=0;resizeLast=0;collapsible=1;marginBottom=0;" vertex="1" parent="WIyWlLk6GJQsqaUBKTNV-1">
          <mxGeometry x="15" y="730" width="100" height="60" as="geometry" />
        </mxCell>
        <mxCell id="1BqQqb550dc3k6DDFvRO-29" value="" style="line;strokeWidth=1;fillColor=none;align=left;verticalAlign=middle;spacingTop=-1;spacingLeft=3;spacingRight=3;rotatable=0;labelPosition=right;points=[];portConstraint=eastwest;strokeColor=inherit;" vertex="1" parent="1BqQqb550dc3k6DDFvRO-28">
          <mxGeometry y="26" width="100" height="8" as="geometry" />
        </mxCell>
        <mxCell id="1BqQqb550dc3k6DDFvRO-30" value="+ Attack(): void" style="text;strokeColor=none;fillColor=none;align=left;verticalAlign=top;spacingLeft=4;spacingRight=4;overflow=hidden;rotatable=0;points=[[0,0.5],[1,0.5]];portConstraint=eastwest;" vertex="1" parent="1BqQqb550dc3k6DDFvRO-28">
          <mxGeometry y="34" width="100" height="26" as="geometry" />
        </mxCell>
        <mxCell id="1BqQqb550dc3k6DDFvRO-31" value="Gun" style="swimlane;fontStyle=1;align=center;verticalAlign=top;childLayout=stackLayout;horizontal=1;startSize=26;horizontalStack=0;resizeParent=1;resizeParentMax=0;resizeLast=0;collapsible=1;marginBottom=0;" vertex="1" parent="WIyWlLk6GJQsqaUBKTNV-1">
          <mxGeometry x="135" y="730" width="80" height="60" as="geometry" />
        </mxCell>
        <mxCell id="1BqQqb550dc3k6DDFvRO-32" value="" style="line;strokeWidth=1;fillColor=none;align=left;verticalAlign=middle;spacingTop=-1;spacingLeft=3;spacingRight=3;rotatable=0;labelPosition=right;points=[];portConstraint=eastwest;strokeColor=inherit;" vertex="1" parent="1BqQqb550dc3k6DDFvRO-31">
          <mxGeometry y="26" width="80" height="8" as="geometry" />
        </mxCell>
        <mxCell id="1BqQqb550dc3k6DDFvRO-33" value="+ Use(): void" style="text;strokeColor=none;fillColor=none;align=left;verticalAlign=top;spacingLeft=4;spacingRight=4;overflow=hidden;rotatable=0;points=[[0,0.5],[1,0.5]];portConstraint=eastwest;" vertex="1" parent="1BqQqb550dc3k6DDFvRO-31">
          <mxGeometry y="34" width="80" height="26" as="geometry" />
        </mxCell>
        <mxCell id="1BqQqb550dc3k6DDFvRO-34" value="" style="endArrow=block;dashed=1;endFill=0;endSize=12;html=1;rounded=0;entryX=0.25;entryY=1;entryDx=0;entryDy=0;exitX=0.5;exitY=0;exitDx=0;exitDy=0;" edge="1" parent="WIyWlLk6GJQsqaUBKTNV-1" source="1BqQqb550dc3k6DDFvRO-20" target="1BqQqb550dc3k6DDFvRO-4">
          <mxGeometry width="160" relative="1" as="geometry">
            <mxPoint x="-85" y="860" as="sourcePoint" />
            <mxPoint x="65" y="870" as="targetPoint" />
          </mxGeometry>
        </mxCell>
        <mxCell id="1BqQqb550dc3k6DDFvRO-38" value="" style="endArrow=block;dashed=1;endFill=0;endSize=12;html=1;rounded=0;exitX=0.5;exitY=0;exitDx=0;exitDy=0;entryX=0.5;entryY=1;entryDx=0;entryDy=0;" edge="1" parent="WIyWlLk6GJQsqaUBKTNV-1" source="1BqQqb550dc3k6DDFvRO-28" target="1BqQqb550dc3k6DDFvRO-4">
          <mxGeometry width="160" relative="1" as="geometry">
            <mxPoint x="-45" y="730" as="sourcePoint" />
            <mxPoint x="15" y="690" as="targetPoint" />
          </mxGeometry>
        </mxCell>
        <mxCell id="1BqQqb550dc3k6DDFvRO-39" value="" style="endArrow=block;dashed=1;endFill=0;endSize=12;html=1;rounded=0;exitX=0.5;exitY=0;exitDx=0;exitDy=0;entryX=0.5;entryY=1;entryDx=0;entryDy=0;" edge="1" parent="WIyWlLk6GJQsqaUBKTNV-1" source="1BqQqb550dc3k6DDFvRO-31" target="1BqQqb550dc3k6DDFvRO-5">
          <mxGeometry width="160" relative="1" as="geometry">
            <mxPoint x="289" y="780" as="sourcePoint" />
            <mxPoint x="239" y="740" as="targetPoint" />
          </mxGeometry>
        </mxCell>
        <mxCell id="1BqQqb550dc3k6DDFvRO-40" value="Bomb" style="swimlane;fontStyle=1;align=center;verticalAlign=top;childLayout=stackLayout;horizontal=1;startSize=26;horizontalStack=0;resizeParent=1;resizeParentMax=0;resizeLast=0;collapsible=1;marginBottom=0;" vertex="1" parent="WIyWlLk6GJQsqaUBKTNV-1">
          <mxGeometry x="255" y="730" width="80" height="60" as="geometry" />
        </mxCell>
        <mxCell id="1BqQqb550dc3k6DDFvRO-41" value="" style="line;strokeWidth=1;fillColor=none;align=left;verticalAlign=middle;spacingTop=-1;spacingLeft=3;spacingRight=3;rotatable=0;labelPosition=right;points=[];portConstraint=eastwest;strokeColor=inherit;" vertex="1" parent="1BqQqb550dc3k6DDFvRO-40">
          <mxGeometry y="26" width="80" height="8" as="geometry" />
        </mxCell>
        <mxCell id="1BqQqb550dc3k6DDFvRO-42" value="+ Use(): void" style="text;strokeColor=none;fillColor=none;align=left;verticalAlign=top;spacingLeft=4;spacingRight=4;overflow=hidden;rotatable=0;points=[[0,0.5],[1,0.5]];portConstraint=eastwest;" vertex="1" parent="1BqQqb550dc3k6DDFvRO-40">
          <mxGeometry y="34" width="80" height="26" as="geometry" />
        </mxCell>
        <mxCell id="1BqQqb550dc3k6DDFvRO-43" value="" style="endArrow=block;dashed=1;endFill=0;endSize=12;html=1;rounded=0;exitX=0.5;exitY=0;exitDx=0;exitDy=0;entryX=0.5;entryY=1;entryDx=0;entryDy=0;" edge="1" parent="WIyWlLk6GJQsqaUBKTNV-1" source="1BqQqb550dc3k6DDFvRO-40" target="1BqQqb550dc3k6DDFvRO-5">
          <mxGeometry width="160" relative="1" as="geometry">
            <mxPoint x="185" y="740" as="sourcePoint" />
            <mxPoint x="245" y="700" as="targetPoint" />
          </mxGeometry>
        </mxCell>
        <mxCell id="1BqQqb550dc3k6DDFvRO-45" value="RedBlue" style="swimlane;fontStyle=1;align=center;verticalAlign=top;childLayout=stackLayout;horizontal=1;startSize=26;horizontalStack=0;resizeParent=1;resizeParentMax=0;resizeLast=0;collapsible=1;marginBottom=0;" vertex="1" parent="WIyWlLk6GJQsqaUBKTNV-1">
          <mxGeometry x="365" y="730" width="90" height="60" as="geometry" />
        </mxCell>
        <mxCell id="1BqQqb550dc3k6DDFvRO-46" value="" style="line;strokeWidth=1;fillColor=none;align=left;verticalAlign=middle;spacingTop=-1;spacingLeft=3;spacingRight=3;rotatable=0;labelPosition=right;points=[];portConstraint=eastwest;strokeColor=inherit;" vertex="1" parent="1BqQqb550dc3k6DDFvRO-45">
          <mxGeometry y="26" width="90" height="8" as="geometry" />
        </mxCell>
        <mxCell id="1BqQqb550dc3k6DDFvRO-47" value="+ Draw(): void" style="text;strokeColor=none;fillColor=none;align=left;verticalAlign=top;spacingLeft=4;spacingRight=4;overflow=hidden;rotatable=0;points=[[0,0.5],[1,0.5]];portConstraint=eastwest;" vertex="1" parent="1BqQqb550dc3k6DDFvRO-45">
          <mxGeometry y="34" width="90" height="26" as="geometry" />
        </mxCell>
        <mxCell id="1BqQqb550dc3k6DDFvRO-49" value="BlackGreen" style="swimlane;fontStyle=1;align=center;verticalAlign=top;childLayout=stackLayout;horizontal=1;startSize=26;horizontalStack=0;resizeParent=1;resizeParentMax=0;resizeLast=0;collapsible=1;marginBottom=0;" vertex="1" parent="WIyWlLk6GJQsqaUBKTNV-1">
          <mxGeometry x="475" y="730" width="90" height="60" as="geometry" />
        </mxCell>
        <mxCell id="1BqQqb550dc3k6DDFvRO-50" value="" style="line;strokeWidth=1;fillColor=none;align=left;verticalAlign=middle;spacingTop=-1;spacingLeft=3;spacingRight=3;rotatable=0;labelPosition=right;points=[];portConstraint=eastwest;strokeColor=inherit;" vertex="1" parent="1BqQqb550dc3k6DDFvRO-49">
          <mxGeometry y="26" width="90" height="8" as="geometry" />
        </mxCell>
        <mxCell id="1BqQqb550dc3k6DDFvRO-51" value="+ Draw(): void" style="text;strokeColor=none;fillColor=none;align=left;verticalAlign=top;spacingLeft=4;spacingRight=4;overflow=hidden;rotatable=0;points=[[0,0.5],[1,0.5]];portConstraint=eastwest;" vertex="1" parent="1BqQqb550dc3k6DDFvRO-49">
          <mxGeometry y="34" width="90" height="26" as="geometry" />
        </mxCell>
        <mxCell id="1BqQqb550dc3k6DDFvRO-52" value="" style="endArrow=block;dashed=1;endFill=0;endSize=12;html=1;rounded=0;exitX=0.5;exitY=0;exitDx=0;exitDy=0;entryX=0.5;entryY=1;entryDx=0;entryDy=0;" edge="1" parent="WIyWlLk6GJQsqaUBKTNV-1" source="1BqQqb550dc3k6DDFvRO-45" target="1BqQqb550dc3k6DDFvRO-6">
          <mxGeometry width="160" relative="1" as="geometry">
            <mxPoint x="465" y="740" as="sourcePoint" />
            <mxPoint x="405" y="700" as="targetPoint" />
          </mxGeometry>
        </mxCell>
        <mxCell id="1BqQqb550dc3k6DDFvRO-54" value="Use" style="endArrow=open;endSize=12;dashed=1;html=1;rounded=0;exitX=0.5;exitY=1;exitDx=0;exitDy=0;entryX=0.5;entryY=0;entryDx=0;entryDy=0;" edge="1" parent="WIyWlLk6GJQsqaUBKTNV-1" source="1BqQqb550dc3k6DDFvRO-3" target="1BqQqb550dc3k6DDFvRO-5">
          <mxGeometry width="160" relative="1" as="geometry">
            <mxPoint x="90" y="110" as="sourcePoint" />
            <mxPoint x="200" y="280" as="targetPoint" />
          </mxGeometry>
        </mxCell>
        <mxCell id="1BqQqb550dc3k6DDFvRO-55" value="Use" style="endArrow=open;endSize=12;dashed=1;html=1;rounded=0;exitX=0.5;exitY=1;exitDx=0;exitDy=0;entryX=0.5;entryY=0;entryDx=0;entryDy=0;" edge="1" parent="WIyWlLk6GJQsqaUBKTNV-1" source="1BqQqb550dc3k6DDFvRO-3" target="1BqQqb550dc3k6DDFvRO-6">
          <mxGeometry width="160" relative="1" as="geometry">
            <mxPoint x="90" y="110" as="sourcePoint" />
            <mxPoint x="420" y="280" as="targetPoint" />
          </mxGeometry>
        </mxCell>
        <mxCell id="1BqQqb550dc3k6DDFvRO-56" value="" style="endArrow=block;dashed=1;endFill=0;endSize=12;html=1;rounded=0;exitX=0.5;exitY=0;exitDx=0;exitDy=0;entryX=0.5;entryY=1;entryDx=0;entryDy=0;" edge="1" parent="WIyWlLk6GJQsqaUBKTNV-1" source="1BqQqb550dc3k6DDFvRO-49" target="1BqQqb550dc3k6DDFvRO-6">
          <mxGeometry width="160" relative="1" as="geometry">
            <mxPoint x="420" y="740" as="sourcePoint" />
            <mxPoint x="455" y="700" as="targetPoint" />
          </mxGeometry>
        </mxCell>
        <object label="&lt;b&gt;Level1Factory&lt;br&gt;+ CreateEnemy(): Enemy&lt;br&gt;+CreateProp(): Prop&lt;br&gt;+CraeetBackground(): Background&lt;br&gt;&lt;/b&gt;" CreateEnemy="Enemy" placeholders="1" id="1BqQqb550dc3k6DDFvRO-61">
          <mxCell style="html=1;" vertex="1" parent="WIyWlLk6GJQsqaUBKTNV-1">
            <mxGeometry x="-300" y="190" width="220" height="90" as="geometry" />
          </mxCell>
        </object>
        <object label="&lt;b&gt;Level2Factory&lt;br&gt;+ CreateEnemy(): Enemy&lt;br&gt;+CreateProp(): Prop&lt;br&gt;+CraeetBackground(): Background&lt;br&gt;&lt;/b&gt;" CreateEnemy="Enemy" placeholders="1" id="1BqQqb550dc3k6DDFvRO-62">
          <mxCell style="html=1;" vertex="1" parent="WIyWlLk6GJQsqaUBKTNV-1">
            <mxGeometry x="500" y="170" width="220" height="90" as="geometry" />
          </mxCell>
        </object>
        <mxCell id="1BqQqb550dc3k6DDFvRO-63" value="" style="endArrow=block;dashed=1;endFill=0;endSize=12;html=1;rounded=0;entryX=0.5;entryY=1;entryDx=0;entryDy=0;exitX=0.5;exitY=0;exitDx=0;exitDy=0;" edge="1" parent="WIyWlLk6GJQsqaUBKTNV-1" source="1BqQqb550dc3k6DDFvRO-61" target="1BqQqb550dc3k6DDFvRO-3">
          <mxGeometry width="160" relative="1" as="geometry">
            <mxPoint x="-15" y="499.9999999999998" as="sourcePoint" />
            <mxPoint x="55" y="459.9999999999998" as="targetPoint" />
          </mxGeometry>
        </mxCell>
        <mxCell id="1BqQqb550dc3k6DDFvRO-64" value="" style="endArrow=block;dashed=1;endFill=0;endSize=12;html=1;rounded=0;entryX=0.5;entryY=1;entryDx=0;entryDy=0;exitX=0.5;exitY=0;exitDx=0;exitDy=0;" edge="1" parent="WIyWlLk6GJQsqaUBKTNV-1" source="1BqQqb550dc3k6DDFvRO-62" target="1BqQqb550dc3k6DDFvRO-3">
          <mxGeometry width="160" relative="1" as="geometry">
            <mxPoint x="-180" y="200" as="sourcePoint" />
            <mxPoint x="90" y="110" as="targetPoint" />
          </mxGeometry>
        </mxCell>
        <mxCell id="1BqQqb550dc3k6DDFvRO-65" value="Use" style="endArrow=open;endSize=12;dashed=1;html=1;rounded=0;exitX=0.5;exitY=1;exitDx=0;exitDy=0;entryX=0.5;entryY=0;entryDx=0;entryDy=0;" edge="1" parent="WIyWlLk6GJQsqaUBKTNV-1" source="1BqQqb550dc3k6DDFvRO-61" target="1BqQqb550dc3k6DDFvRO-20">
          <mxGeometry width="160" relative="1" as="geometry">
            <mxPoint x="90" y="110" as="sourcePoint" />
            <mxPoint x="95" y="389.9999999999998" as="targetPoint" />
          </mxGeometry>
        </mxCell>
        <mxCell id="1BqQqb550dc3k6DDFvRO-66" value="Use" style="endArrow=open;endSize=12;dashed=1;html=1;rounded=0;exitX=0.5;exitY=1;exitDx=0;exitDy=0;entryX=0.5;entryY=0;entryDx=0;entryDy=0;" edge="1" parent="WIyWlLk6GJQsqaUBKTNV-1" source="1BqQqb550dc3k6DDFvRO-61" target="1BqQqb550dc3k6DDFvRO-31">
          <mxGeometry width="160" relative="1" as="geometry">
            <mxPoint x="-180" y="290" as="sourcePoint" />
            <mxPoint x="-15" y="499.9999999999998" as="targetPoint" />
          </mxGeometry>
        </mxCell>
        <mxCell id="1BqQqb550dc3k6DDFvRO-67" value="Use" style="endArrow=open;endSize=12;dashed=1;html=1;rounded=0;exitX=0.5;exitY=1;exitDx=0;exitDy=0;entryX=0.5;entryY=0;entryDx=0;entryDy=0;" edge="1" parent="WIyWlLk6GJQsqaUBKTNV-1" source="1BqQqb550dc3k6DDFvRO-61" target="1BqQqb550dc3k6DDFvRO-45">
          <mxGeometry width="160" relative="1" as="geometry">
            <mxPoint x="-180" y="290" as="sourcePoint" />
            <mxPoint x="255" y="499.9999999999998" as="targetPoint" />
          </mxGeometry>
        </mxCell>
        <mxCell id="1BqQqb550dc3k6DDFvRO-68" value="Use" style="endArrow=open;endSize=12;dashed=1;html=1;rounded=0;exitX=0.5;exitY=1;exitDx=0;exitDy=0;entryX=0.5;entryY=0;entryDx=0;entryDy=0;" edge="1" parent="WIyWlLk6GJQsqaUBKTNV-1" source="1BqQqb550dc3k6DDFvRO-62" target="1BqQqb550dc3k6DDFvRO-28">
          <mxGeometry width="160" relative="1" as="geometry">
            <mxPoint x="-180" y="290" as="sourcePoint" />
            <mxPoint x="490" y="499.9999999999998" as="targetPoint" />
          </mxGeometry>
        </mxCell>
        <mxCell id="1BqQqb550dc3k6DDFvRO-69" value="Use" style="endArrow=open;endSize=12;dashed=1;html=1;rounded=0;exitX=0.5;exitY=1;exitDx=0;exitDy=0;entryX=0.5;entryY=0;entryDx=0;entryDy=0;" edge="1" parent="WIyWlLk6GJQsqaUBKTNV-1" source="1BqQqb550dc3k6DDFvRO-62" target="1BqQqb550dc3k6DDFvRO-40">
          <mxGeometry width="160" relative="1" as="geometry">
            <mxPoint x="620" y="270" as="sourcePoint" />
            <mxPoint x="-15" y="499.9999999999998" as="targetPoint" />
          </mxGeometry>
        </mxCell>
        <mxCell id="1BqQqb550dc3k6DDFvRO-71" value="Use" style="endArrow=open;endSize=12;dashed=1;html=1;rounded=0;exitX=0.5;exitY=1;exitDx=0;exitDy=0;entryX=0.5;entryY=0;entryDx=0;entryDy=0;" edge="1" parent="WIyWlLk6GJQsqaUBKTNV-1" source="1BqQqb550dc3k6DDFvRO-62" target="1BqQqb550dc3k6DDFvRO-49">
          <mxGeometry width="160" relative="1" as="geometry">
            <mxPoint x="620" y="270" as="sourcePoint" />
            <mxPoint x="375" y="499.9999999999998" as="targetPoint" />
          </mxGeometry>
        </mxCell>
      </root>
    </mxGraphModel>
  </diagram>
</mxfile>
